<svg width="150" height="23" xmlns="http://www.w3.org/2000/svg"><g transform="translate(-1 -9)" fill="none" fill-rule="evenodd"><path d="M5.19 31c-.64 0-1.175-.05-1.605-.15-.43-.1-.77-.27-1.02-.51s-.425-.555-.525-.945c-.1-.39-.15-.875-.15-1.455V13.09c0-.6.05-1.115.15-1.545.1-.43.275-.785.525-1.065.25-.28.59-.485 1.02-.615.43-.13.985-.195 1.665-.195h3.99c2.2 0 3.86.48 4.98 1.44 1.12.96 1.68 2.25 1.68 3.87 0 2.04-.88 3.44-2.64 4.2 1.4.34 2.47.975 3.21 1.905.74.93 1.11 2.095 1.11 3.495 0 1.96-.645 3.52-1.935 4.68C14.355 30.42 12.47 31 9.99 31h-4.8zm3.99-4.17c1.1 0 1.925-.21 2.475-.63.55-.42.825-1.01.825-1.77 0-.84-.28-1.45-.84-1.83-.56-.38-1.41-.57-2.55-.57H6.75v4.8h2.43zm-.39-8.85c.74 0 1.325-.195 1.755-.585.43-.39.645-.885.645-1.485 0-.64-.22-1.15-.66-1.53-.44-.38-1.04-.57-1.8-.57H6.75v4.17h2.04zm21.54 4.53l-2.46-7.92-2.64 7.92h5.1zm1.41 4.47h-7.89l-.72 2.16c-.48 1.44-1.26 2.16-2.34 2.16-.68 0-1.235-.215-1.665-.645-.43-.43-.645-.985-.645-1.665 0-.24.015-.48.045-.72s.095-.47.195-.69l5.55-15.06c.4-1.08.895-1.875 1.485-2.385.59-.51 1.335-.765 2.235-.765 1.7 0 2.89.94 3.57 2.82l5.4 15.33c.22.62.33 1.13.33 1.53 0 .7-.23 1.25-.69 1.65-.46.4-1.03.6-1.71.6-1.22 0-2.07-.78-2.55-2.34l-.6-1.98zM42.42 31c-.64 0-1.175-.05-1.605-.15-.43-.1-.77-.27-1.02-.51s-.425-.555-.525-.945c-.1-.39-.15-.875-.15-1.455V13.09c0-.6.05-1.115.15-1.545.1-.43.275-.785.525-1.065.25-.28.59-.485 1.02-.615.43-.13.985-.195 1.665-.195h3.99c2.2 0 3.86.48 4.98 1.44 1.12.96 1.68 2.25 1.68 3.87 0 2.04-.88 3.44-2.64 4.2 1.4.34 2.47.975 3.21 1.905.74.93 1.11 2.095 1.11 3.495 0 1.96-.645 3.52-1.935 4.68C51.585 30.42 49.7 31 47.22 31h-4.8zm3.99-4.17c1.1 0 1.925-.21 2.475-.63.55-.42.825-1.01.825-1.77 0-.84-.28-1.45-.84-1.83-.56-.38-1.41-.57-2.55-.57h-2.34v4.8h2.43zm-.39-8.85c.74 0 1.325-.195 1.755-.585.43-.39.645-.885.645-1.485 0-.64-.22-1.15-.66-1.53-.44-.38-1.04-.57-1.8-.57h-1.98v4.17h2.04zm15.12 2.97l-4.92-6.96c-.3-.42-.555-.815-.765-1.185a2.538 2.538 0 0 1-.315-1.275c0-.54.215-1.035.645-1.485.43-.45.995-.675 1.695-.675.42 0 .83.16 1.23.48.4.32.82.79 1.26 1.41l3.63 5.19 3.69-5.25c.86-1.22 1.73-1.83 2.61-1.83.26 0 .52.06.78.18s.49.28.69.48c.2.2.36.425.48.675.12.25.18.505.18.765 0 .48-.11.905-.33 1.275-.22.37-.48.765-.78 1.185L66 20.95v6.87c0 2.3-.81 3.45-2.43 3.45s-2.43-1.15-2.43-3.45v-6.87zm25.51-6.75h-1.8c-2.3 0-3.45-.75-3.45-2.25 0-1.52 1.15-2.28 3.45-2.28h8.46c2.3 0 3.45.76 3.45 2.28 0 1.5-1.15 2.25-3.45 2.25h-1.8v13.62c0 2.3-.81 3.45-2.43 3.45s-2.43-1.15-2.43-3.45V14.2zM97 20.35c0-1.7.255-3.24.765-4.62s1.225-2.565 2.145-3.555a9.474 9.474 0 0 1 3.3-2.295c1.28-.54 2.7-.81 4.26-.81 1.56 0 2.98.27 4.26.81a9.626 9.626 0 0 1 3.315 2.295c.93.99 1.65 2.175 2.16 3.555.51 1.38.765 2.92.765 4.62 0 1.68-.25 3.215-.75 4.605-.5 1.39-1.21 2.58-2.13 3.57a9.441 9.441 0 0 1-3.315 2.295c-1.29.54-2.725.81-4.305.81-1.58 0-3.015-.27-4.305-.81a9.293 9.293 0 0 1-3.3-2.295c-.91-.99-1.615-2.18-2.115-3.57-.5-1.39-.75-2.925-.75-4.605zm5.28.06c0 1.02.125 1.935.375 2.745s.605 1.5 1.065 2.07c.46.57 1.01 1.005 1.65 1.305.64.3 1.34.45 2.1.45s1.46-.15 2.1-.45c.64-.3 1.19-.735 1.65-1.305.46-.57.815-1.26 1.065-2.07.25-.81.375-1.725.375-2.745 0-1.06-.125-2.005-.375-2.835-.25-.83-.605-1.535-1.065-2.115a4.594 4.594 0 0 0-1.635-1.32c-.63-.3-1.335-.45-2.115-.45-.78 0-1.485.15-2.115.45-.63.3-1.175.74-1.635 1.32-.46.58-.815 1.285-1.065 2.115-.25.83-.375 1.775-.375 2.835zm21.96.54l-4.92-6.96c-.3-.42-.555-.815-.765-1.185a2.538 2.538 0 0 1-.315-1.275c0-.54.215-1.035.645-1.485.43-.45.995-.675 1.695-.675.42 0 .83.16 1.23.48.4.32.82.79 1.26 1.41l3.63 5.19 3.69-5.25c.86-1.22 1.73-1.83 2.61-1.83.26 0 .52.06.78.18s.49.28.69.48c.2.2.36.425.48.675.12.25.18.505.18.765 0 .48-.11.905-.33 1.275-.22.37-.48.765-.78 1.185l-4.92 7.02v6.87c0 2.3-.81 3.45-2.43 3.45s-2.43-1.15-2.43-3.45v-6.87zm25.98 3.45c0 1.04-.19 1.995-.57 2.865-.38.87-.93 1.625-1.65 2.265-.72.64-1.59 1.14-2.61 1.5-1.02.36-2.17.54-3.45.54-1 0-1.92-.095-2.76-.285-.84-.19-1.57-.445-2.19-.765-.62-.32-1.1-.685-1.44-1.095-.34-.41-.51-.835-.51-1.275 0-.64.21-1.165.63-1.575.42-.41 1.01-.615 1.77-.615.32 0 .67.055 1.05.165.38.11.785.235 1.215.375.43.14.89.265 1.38.375.49.11 1.005.165 1.545.165.68 0 1.25-.205 1.71-.615.46-.41.69-.935.69-1.575 0-.42-.085-.78-.255-1.08-.17-.3-.415-.56-.735-.78-.32-.22-.71-.41-1.17-.57-.46-.16-.98-.33-1.56-.51-1.02-.3-1.91-.63-2.67-.99s-1.39-.775-1.89-1.245c-.5-.47-.87-1.015-1.11-1.635-.24-.62-.36-1.35-.36-2.19 0-.96.18-1.85.54-2.67.36-.82.88-1.535 1.56-2.145.68-.61 1.495-1.085 2.445-1.425.95-.34 2.015-.51 3.195-.51.88 0 1.68.085 2.4.255.72.17 1.335.395 1.845.675s.9.615 1.17 1.005c.27.39.405.795.405 1.215 0 .64-.19 1.145-.57 1.515-.38.37-.92.555-1.62.555-.3 0-.605-.04-.915-.12-.31-.08-.625-.165-.945-.255a27.74 27.74 0 0 0-.975-.255c-.33-.08-.655-.12-.975-.12-.76 0-1.345.175-1.755.525-.41.35-.615.785-.615 1.305 0 .38.09.69.27.93.18.24.435.44.765.6.33.16.735.315 1.215.465.48.15 1.02.325 1.62.525 2 .66 3.48 1.5 4.44 2.52.96 1.02 1.44 2.34 1.44 3.96z" fill="#4B4B4B"/><circle fill="#FF6D00" cx="76" cy="21" r="5"/></g></svg>