<?xml version='1.0' encoding='iso-8859-1'?>
<svg version="1.1" xmlns="http://www.w3.org/2000/svg" viewBox="0 0 51 51" xmlns:xlink="http://www.w3.org/1999/xlink" enable-background="new 0 0 51 51">
  <g>
    <g>
      <path d="m22,38c-1.657,0-3,1.343-3,3s1.343,3 3,3 3-1.343 3-3-1.343-3-3-3zm1,4h-2v-2h2v2zm18-4c-1.657,0-3,1.343-3,3s1.343,3 3,3 3-1.343 3-3-1.343-3-3-3zm1,4h-2v-2h2v2zm-28.319-27l-2.556-8h-11.125v2h9.764l6.236,20c0,2.761 2.239,5 5,5h21c2.761,0 4.32-2.119 5-5l4-14h-37.319zm31.319,14c-0.462,1.593-1.343,3-3,3h-21c-1.657,0-3-1.343-3-3l-3.417-12h33.97l-3.553,12z"/>
    </g>
  </g>
</svg>
