<?xml version="1.0" encoding="iso-8859-1"?>
<!-- Generator: Adobe Illustrator 19.0.0, SVG Export Plug-In . SVG Version: 6.00 Build 0)  -->
<svg version="1.1" id="Layer_1" xmlns="http://www.w3.org/2000/svg" xmlns:xlink="http://www.w3.org/1999/xlink" x="0px" y="0px"
	 viewBox="0 0 512 512" style="enable-background:new 0 0 512 512;" xml:space="preserve">
<g>
	<g>
		<path d="M392.327,226.071c0-16.209-13.186-29.394-29.395-29.394H308.91c13.125-14.753,21.703-31.552,23.36-46.623
			c1.012-9.205-1.832-18.342-7.805-25.069c-5.459-6.149-12.924-9.576-21.02-9.651c-0.094-0.001-0.188-0.001-0.281-0.001
			c-7.831,0-15.181,3.016-20.728,8.512c-5.548,5.497-8.618,12.82-8.654,20.635c-0.285,1.711-3.295,7.61-10.66,14.614
			c-6.03,5.736-16.446,13.621-31.825,18.614c-6.03,1.958-11.541,5.563-16.379,10.715c-2.539,2.702-6.341,6.434-11.048,10.18
			c-2.31-1.224-4.937-1.924-7.728-1.924h-51.307c-9.136,0-16.568,7.432-16.568,16.568v136.818c0,9.136,7.432,16.568,16.568,16.568
			h51.307c6.228,0,11.659-3.458,14.489-8.551h130.923c13.851,0,25.119-11.268,25.119-25.119c0-4.657-1.273-9.021-3.491-12.765
			c7.217-4.418,12.042-12.376,12.042-21.44c0-4.657-1.273-9.021-3.491-12.765c7.217-4.418,12.042-12.376,12.042-21.44
			c0-5.242-1.614-10.114-4.371-14.146C387.197,245.114,392.327,236.18,392.327,226.071z M362.932,239.432h-4.276
			c-4.427,0-8.017,3.589-8.017,8.017c0,4.427,3.589,8.017,8.017,8.017c5.01,0,9.086,4.076,9.086,9.086s-4.076,9.086-9.086,9.086
			h-8.551c-4.427,0-8.017,3.589-8.017,8.017c0,4.427,3.589,8.017,8.017,8.017c5.01,0,9.086,4.076,9.086,9.086
			c0,5.01-4.076,9.086-9.086,9.086h-8.551c-4.427,0-8.017,3.589-8.017,8.017c0,4.427,3.589,8.017,8.017,8.017
			c5.01,0,9.086,4.076,9.086,9.086c0,5.01-4.076,9.086-9.086,9.086H212.71v-77.495c0-4.427-3.589-8.017-8.017-8.017
			s-8.017,3.589-8.017,8.017v85.511c0,0.295-0.239,0.534-0.534,0.534h-51.307c-0.295,0-0.534-0.239-0.534-0.534V213.244
			c0-0.295,0.239-0.534,0.534-0.534h51.307c0.295,0,0.534,0.239,0.534,0.534v17.103c0,4.427,3.589,8.017,8.017,8.017
			s8.017-3.589,8.017-8.017v-17.103c0-0.389-0.032-0.77-0.059-1.152c6.011-4.653,10.818-9.357,13.954-12.695
			c2.967-3.161,6.211-5.327,9.642-6.44c18.87-6.126,31.569-15.99,38.898-23.186c9.186-9.019,14.669-18.421,14.669-25.152
			c0-3.556,1.387-6.889,3.906-9.385c2.55-2.527,5.927-3.862,9.576-3.867c4.494,0.042,7.47,2.341,9.177,4.263
			c2.926,3.295,4.366,8.033,3.857,12.672c-1.751,15.929-14.49,35.619-32.454,50.161c-2.639,2.137-3.646,5.705-2.513,8.906
			c1.133,3.201,4.161,5.341,7.557,5.341h74.01c7.368,0,13.361,5.993,13.361,13.361S370.299,239.432,362.932,239.432z"/>
	</g>
</g>
<g>
	<g>
		<path d="M170.489,316.306c-4.427,0-8.059,3.632-8.059,8.059c0,4.427,3.632,8.059,8.059,8.059c4.427,0,8.059-3.632,8.059-8.059
			C178.549,319.939,174.917,316.306,170.489,316.306z"/>
	</g>
</g>
<g>
	<g>
		<path d="M497.71,256l13.772-36.443c1.003-2.651,0.53-5.634-1.243-7.847l-24.359-30.404l1.836-38.915
			c0.134-2.83-1.238-5.523-3.606-7.078l-32.562-21.389l-10.278-37.578c-0.748-2.734-2.884-4.87-5.617-5.617l-37.578-10.278
			L376.686,27.89c-1.556-2.369-4.248-3.735-7.078-3.606l-38.915,1.836L300.289,1.761c-2.212-1.772-5.195-2.245-7.847-1.243
			l-36.443,13.772L219.558,0.519c-2.653-1.003-5.635-0.53-7.847,1.243l-30.404,24.359l-38.915-1.836
			c-2.844-0.134-5.523,1.238-7.078,3.606l-21.388,32.562L76.348,70.731c-2.734,0.748-4.87,2.884-5.617,5.617l-10.278,37.578
			l-32.562,21.388c-2.369,1.556-3.74,4.248-3.606,7.078l1.836,38.915L1.762,211.711c-1.772,2.212-2.245,5.195-1.243,7.847L14.29,256
			L0.518,292.442c-1.003,2.651-0.53,5.634,1.243,7.847l24.359,30.404l-1.836,38.915c-0.134,2.83,1.238,5.523,3.606,7.078
			l32.562,21.389l10.278,37.578c0.748,2.734,2.884,4.87,5.617,5.617l37.578,10.278l21.388,32.562
			c1.556,2.369,4.253,3.731,7.078,3.606l38.915-1.836l30.404,24.359c2.212,1.773,5.196,2.246,7.847,1.243l36.443-13.772
			l36.443,13.772c0.92,0.347,1.879,0.517,2.833,0.517c1.796,0,3.569-0.603,5.013-1.76l30.404-24.359l38.915,1.836
			c2.839,0.126,5.522-1.238,7.078-3.606l21.389-32.562l37.578-10.278c2.734-0.748,4.87-2.884,5.617-5.617l10.278-37.578
			l32.562-21.389c2.369-1.556,3.74-4.248,3.606-7.078l-1.836-38.915l24.359-30.404c1.772-2.212,2.245-5.195,1.243-7.847L497.71,256z
			 M481.641,258.834l13.226,34.999l-23.394,29.199c-1.221,1.523-1.844,3.44-1.752,5.39l1.764,37.373l-31.271,20.541
			c-1.631,1.071-2.817,2.702-3.332,4.586l-9.871,36.089l-36.089,9.871c-1.883,0.515-3.513,1.7-4.586,3.332l-20.541,31.271
			l-37.373-1.764c-1.951-0.09-3.867,0.531-5.39,1.752l-29.199,23.394l-34.999-13.226c-0.913-0.345-1.874-0.517-2.834-0.517
			c-0.96,0-1.921,0.173-2.834,0.517l-34.999,13.226l-29.199-23.394c-1.523-1.221-3.443-1.842-5.39-1.752l-37.373,1.764
			l-20.541-31.271c-1.071-1.631-2.702-2.817-4.586-3.332l-36.089-9.871l-9.871-36.089c-0.515-1.883-1.7-3.513-3.332-4.586
			l-31.271-20.541l1.764-37.373c0.092-1.951-0.531-3.867-1.752-5.39l-23.394-29.199l13.227-34.999c0.69-1.826,0.69-3.842,0-5.668
			l-13.227-34.999l23.394-29.199c1.221-1.523,1.844-3.44,1.752-5.39l-1.764-37.373l31.271-20.541
			c1.631-1.071,2.817-2.702,3.332-4.586l9.871-36.089l36.089-9.871c1.883-0.515,3.513-1.7,4.586-3.332l20.541-31.271l37.373,1.764
			c1.948,0.091,3.867-0.531,5.39-1.752l29.199-23.394l34.999,13.227c1.827,0.69,3.842,0.69,5.668,0l34.999-13.227l29.199,23.394
			c1.523,1.222,3.441,1.844,5.39,1.752l37.373-1.764l20.541,31.271c1.071,1.631,2.702,2.817,4.586,3.332l36.089,9.871l9.871,36.089
			c0.515,1.883,1.7,3.513,3.332,4.586l31.271,20.541l-1.764,37.373c-0.092,1.951,0.531,3.867,1.752,5.39l23.394,29.199
			l-13.227,34.999C480.951,254.993,480.951,257.008,481.641,258.834z"/>
	</g>
</g>
<g>
	<g>
		<path d="M406.634,117.574c-1.995-2.172-4.064-4.332-6.153-6.42c-2.089-2.088-4.248-4.158-6.42-6.153
			c-3.261-2.994-8.332-2.778-11.327,0.484c-2.994,3.261-2.778,8.333,0.484,11.327c2.003,1.84,3.997,3.75,5.925,5.678
			c1.927,1.927,3.838,3.922,5.679,5.926c1.581,1.722,3.741,2.595,5.908,2.595c1.937,0,3.88-0.698,5.419-2.111
			C409.411,125.907,409.628,120.835,406.634,117.574z"/>
	</g>
</g>
<g>
	<g>
		<path d="M365.592,83.125c-38.66-24.63-85.206-35.576-131.059-30.829c-46.525,4.82-90.395,25.722-123.531,58.857
			c-36.467,36.467-57.699,84.911-59.785,136.408C49.144,298.755,66.1,348.459,98.963,387.515c1.585,1.884,3.853,2.855,6.139,2.855
			c1.822,0,3.654-0.618,5.157-1.882c3.387-2.851,3.823-7.908,0.973-11.295c-30.281-35.989-45.905-81.795-43.995-128.982
			c1.922-47.462,21.49-92.11,55.101-125.72c30.54-30.541,70.972-49.806,113.846-54.247c42.275-4.38,85.171,5.709,120.792,28.403
			c3.735,2.379,8.689,1.281,11.068-2.453C370.424,90.459,369.325,85.504,365.592,83.125z"/>
	</g>
</g>
<g>
	<g>
		<path d="M428.511,146.043c-2.379-3.735-7.337-4.833-11.069-2.454c-3.735,2.379-4.832,7.335-2.453,11.068
			c22.694,35.622,32.781,78.52,28.403,120.792c-4.441,42.874-23.706,83.305-54.246,113.847
			c-33.611,33.61-78.259,53.179-125.72,55.101c-47.179,1.918-92.994-13.713-128.982-43.993c-3.387-2.851-8.444-2.415-11.295,0.973
			c-2.851,3.387-2.415,8.444,0.973,11.295c36.921,31.065,83.351,47.917,131.566,47.916c2.789,0,5.589-0.057,8.389-0.17
			c51.497-2.085,99.94-23.317,136.408-59.784c33.136-33.136,54.039-77.007,58.857-123.532
			C464.09,231.246,453.141,184.702,428.511,146.043z"/>
	</g>
</g>
<g>
</g>
<g>
</g>
<g>
</g>
<g>
</g>
<g>
</g>
<g>
</g>
<g>
</g>
<g>
</g>
<g>
</g>
<g>
</g>
<g>
</g>
<g>
</g>
<g>
</g>
<g>
</g>
<g>
</g>
</svg>
