<?xml version="1.0" encoding="iso-8859-1"?>
<!-- Generator: Adobe Illustrator 19.0.0, SVG Export Plug-In . SVG Version: 6.00 Build 0)  -->
<svg version="1.1" id="Capa_1" xmlns="http://www.w3.org/2000/svg" xmlns:xlink="http://www.w3.org/1999/xlink" x="0px" y="0px"
	 viewBox="0 0 512 512" style="enable-background:new 0 0 512 512;" xml:space="preserve">
<g>
	<g>
		<path d="M437.895,350.877v98.246H57.263c-13.221,0-23.579-10.358-23.579-23.579V100.491H0v325.053
			c0,31.573,25.69,57.263,57.263,57.263h397.474c9.302,0,16.842-7.54,16.842-16.842V350.877H437.895z"/>
	</g>
</g>
<g>
	<g>
		<path d="M495.158,241.965H367.719c-9.302,0-16.842,7.54-16.842,16.842v92.07c0,9.302,7.54,16.842,16.842,16.842h127.439
			c9.302,0,16.842-7.54,16.842-16.842v-92.07C512,249.505,504.46,241.965,495.158,241.965z M478.316,334.035h-93.754v-58.386h93.754
			V334.035z"/>
	</g>
</g>
<g>
	<g>
		<path d="M454.175,130.246h-40.421V46.035c0-9.302-7.54-16.842-16.842-16.842H67.368C30.22,29.193,0,59.413,0,96.561
			s30.22,67.368,67.368,67.368h369.965v95.439h33.684V147.088C471.018,137.785,463.478,130.246,454.175,130.246z M380.07,130.246
			H67.368c-18.886,0-33.684-14.799-33.684-33.684s14.799-33.684,33.684-33.684H380.07V130.246z"/>
	</g>
</g>
<g>
	<g>
		<path d="M396.912,80.281H67.93c-9.302,0-16.842,7.54-16.842,16.842s7.54,16.842,16.842,16.842h328.982
			c9.302,0,16.842-7.54,16.842-16.842S406.215,80.281,396.912,80.281z"/>
	</g>
</g>
<g>
</g>
<g>
</g>
<g>
</g>
<g>
</g>
<g>
</g>
<g>
</g>
<g>
</g>
<g>
</g>
<g>
</g>
<g>
</g>
<g>
</g>
<g>
</g>
<g>
</g>
<g>
</g>
<g>
</g>
</svg>
