<svg xmlns="http://www.w3.org/2000/svg" xmlns:xlink="http://www.w3.org/1999/xlink"><symbol id="basket" viewBox="0 0 511.999 511.999"><path d="M180.213 395.039c-32.248 0-58.48 26.232-58.48 58.48s26.233 58.48 58.48 58.48c32.248 0 58.48-26.239 58.48-58.48s-26.232-58.48-58.48-58.48zm0 81.162c-12.502 0-22.676-10.168-22.676-22.676s10.174-22.676 22.676-22.676c12.508 0 22.676 10.168 22.676 22.676s-10.168 22.676-22.676 22.676zM392.657 395.039c-32.254 0-58.486 26.233-58.486 58.48 0 32.248 26.233 58.48 58.486 58.48 32.242 0 58.48-26.233 58.48-58.48s-26.238-58.48-58.48-58.48zm0 81.156c-12.508 0-22.682-10.174-22.682-22.676s10.174-22.67 22.682-22.67c12.502 0 22.676 10.162 22.676 22.67 0 12.508-10.168 22.676-22.676 22.676zM154.553 377.143h278.676c9.894 0 17.902-8.014 17.902-17.902 0-9.888-8.014-17.902-17.902-17.902H169.776L118.522 26.96a17.901 17.901 0 0 0-14.602-14.757L35.295.268c-9.769-1.695-19.012 4.828-20.707 14.566-1.701 9.745 4.828 19.012 14.566 20.707l56.075 9.751 51.653 316.825a17.9 17.9 0 0 0 17.671 15.026z"/><path d="M494.24 115.969a17.894 17.894 0 0 0-14.465-7.358h-364.01v35.804h339.454l-36.825 114.573H141.425v35.804h290.02a17.916 17.916 0 0 0 17.043-12.424l48.336-150.378a17.9 17.9 0 0 0-2.584-16.021z"/></symbol><symbol id="chevron-down" viewBox="0 0 185.344 185.344"><path d="M92.672 144.373a10.707 10.707 0 0 1-7.593-3.138L3.145 59.301c-4.194-4.199-4.194-10.992 0-15.18a10.72 10.72 0 0 1 15.18 0l74.347 74.341 74.347-74.341a10.72 10.72 0 0 1 15.18 0c4.194 4.194 4.194 10.981 0 15.18l-81.939 81.934a10.694 10.694 0 0 1-7.588 3.138z" fill="#010002"/></symbol><symbol id="chevron-left" viewBox="0 0 492 492"><path d="M198.608 246.104L382.664 62.04c5.068-5.056 7.856-11.816 7.856-19.024 0-7.212-2.788-13.968-7.856-19.032l-16.128-16.12C361.476 2.792 354.712 0 347.504 0s-13.964 2.792-19.028 7.864L109.328 227.008c-5.084 5.08-7.868 11.868-7.848 19.084-.02 7.248 2.76 14.028 7.848 19.112l218.944 218.932c5.064 5.072 11.82 7.864 19.032 7.864 7.208 0 13.964-2.792 19.032-7.864l16.124-16.12c10.492-10.492 10.492-27.572 0-38.06L198.608 246.104z"/></symbol><symbol id="chevron-right" viewBox="0 0 492.004 492.004"><path d="M382.678 226.804L163.73 7.86C158.666 2.792 151.906 0 144.698 0s-13.968 2.792-19.032 7.86l-16.124 16.12c-10.492 10.504-10.492 27.576 0 38.064L293.398 245.9l-184.06 184.06c-5.064 5.068-7.86 11.824-7.86 19.028 0 7.212 2.796 13.968 7.86 19.04l16.124 16.116c5.068 5.068 11.824 7.86 19.032 7.86s13.968-2.792 19.032-7.86L382.678 265c5.076-5.084 7.864-11.872 7.848-19.088.016-7.244-2.772-14.028-7.848-19.108z"/></symbol><symbol id="chevron-up" viewBox="0 0 185.333 185.333"><path d="M174.612 144.368a10.697 10.697 0 0 1-7.593-3.144L92.672 66.872l-74.347 74.352c-4.194 4.194-10.987 4.194-15.18 0-4.194-4.194-4.194-10.981 0-15.17l81.934-81.945c4.194-4.194 10.992-4.194 15.18 0l81.929 81.945a10.718 10.718 0 0 1 0 15.17 10.646 10.646 0 0 1-7.576 3.144z" fill="#010002"/></symbol><symbol id="close" viewBox="0 0 47.971 47.971"><path d="M28.228 23.986L47.092 5.122a2.998 2.998 0 0 0 0-4.242 2.998 2.998 0 0 0-4.242 0L23.986 19.744 5.121.88a2.998 2.998 0 0 0-4.242 0 2.998 2.998 0 0 0 0 4.242l18.865 18.864L.879 42.85a2.998 2.998 0 1 0 4.242 4.241l18.865-18.864L42.85 47.091c.586.586 1.354.879 2.121.879s1.535-.293 2.121-.879a2.998 2.998 0 0 0 0-4.242L28.228 23.986z"/></symbol><symbol id="consult" viewBox="0 -26 512 512"><path d="M256 100c-5.52 0-10 4.48-10 10s4.48 10 10 10 10-4.48 10-10-4.48-10-10-10zm0 0M90 280c5.52 0 10-4.48 10-10s-4.48-10-10-10-10 4.48-10 10 4.48 10 10 10zm0 0"/><path d="M336 0c-90.027 0-163.918 62.07-169.633 140.254C80.63 144.554 0 206.379 0 290c0 34.945 13.828 68.805 39 95.633 4.98 20.531-1.066 42.293-16.07 57.297A9.998 9.998 0 1 0 30 460c28.52 0 56.004-11.184 76.426-30.89C126.32 435.89 152.277 440 176 440c90.016 0 163.898-62.055 169.629-140.223 20.937-.93 42.715-4.797 59.945-10.668C425.996 308.816 453.48 320 482 320a9.998 9.998 0 0 0 7.07-17.07c-15.004-15.004-21.05-36.766-16.07-57.297 25.172-26.828 39-60.688 39-95.633C512 63.113 425.16 0 336 0zM176 420c-23.602 0-50.496-4.633-68.512-11.8a10 10 0 0 0-11.078 2.538c-12.074 13.2-27.773 22.403-44.879 26.633a80.872 80.872 0 0 0 6.098-59.52 9.98 9.98 0 0 0-2.445-4.226C32.496 350.258 20 320.559 20 290c0-70.469 71.438-130 156-130 79.852 0 150 55.527 150 130 0 71.684-67.29 130-150 130zm280.816-186.375a10.027 10.027 0 0 0-2.445 4.227 80.872 80.872 0 0 0 6.098 59.52c-17.106-4.227-32.805-13.435-44.88-26.634a10.007 10.007 0 0 0-11.077-2.539c-15.614 6.211-37.887 10.512-58.914 11.551-2.922-37.816-21.786-73.36-54.036-99.75H422c5.523 0 10-4.477 10-10s-4.477-10-10-10H260.84c-22.7-11.555-48.188-18.293-74.422-19.707C192.164 73.129 257.058 20 336 20c84.563 0 156 59.531 156 130 0 30.559-12.496 60.258-35.184 83.625zm0 0"/><path d="M256 260H130c-5.523 0-10 4.477-10 10s4.477 10 10 10h126c5.523 0 10-4.477 10-10s-4.477-10-10-10zm0 0M256 320H90c-5.523 0-10 4.477-10 10s4.477 10 10 10h166c5.523 0 10-4.477 10-10s-4.477-10-10-10zm0 0M422 100H296c-5.523 0-10 4.477-10 10s4.477 10 10 10h126c5.523 0 10-4.477 10-10s-4.477-10-10-10zm0 0"/></symbol><symbol id="delivery" viewBox="0 0 24 24"><path d="M1 0v19a5 5 0 0 0 5 5h12a5 5 0 0 0 5-5V0H1zm20 19a3 3 0 0 1-3 3H6a3 3 0 0 1-3-3V2h18v17zm-9-6a5 5 0 0 0 5-5V6h-2v2a3 3 0 1 1-6 0V6H7v2a5 5 0 0 0 5 5z"/></symbol><symbol id="dots" viewBox="0 0 426.667 426.667"><circle cx="42.667" cy="213.333" r="42.667"/><circle cx="213.333" cy="213.333" r="42.667"/><circle cx="384" cy="213.333" r="42.667"/></symbol><symbol id="fast-delivery" viewBox="0 0 491.1 491.1"><path d="M401.5 322.95c-12 0-23.4 4.7-32 13.2-8.6 8.6-13.4 19.8-13.4 31.8s4.7 23.2 13.4 31.8c8.7 8.5 20 13.2 32 13.2 24.6 0 44.6-20.2 44.6-45s-20-45-44.6-45zm0 70c-13.8 0-25.4-11.4-25.4-25s11.6-25 25.4-25c13.6 0 24.6 11.2 24.6 25s-11 25-24.6 25zm11.6-219.9c-1.8-1.7-4.2-2.6-6.7-2.6h-51.3c-5.5 0-10 4.5-10 10v82c0 5.5 4.5 10 10 10h81.4c5.5 0 10-4.5 10-10v-54.9c0-2.8-1.2-5.5-3.3-7.4l-30.1-27.1zm13.4 79.4h-61.4v-62.1h37.4l24 21.6v40.5zm-269.2 70.5c-12 0-23.4 4.7-32 13.2-8.6 8.6-13.4 19.8-13.4 31.8s4.7 23.2 13.4 31.8c8.7 8.5 20 13.2 32 13.2 24.6 0 44.6-20.2 44.6-45s-20-45-44.6-45zm0 70c-13.8 0-25.4-11.4-25.4-25s11.6-25 25.4-25c13.6 0 24.6 11.2 24.6 25s-11 25-24.6 25zm-66.7-57.7H70.5v-26.6c0-5.5-4.5-10-10-10s-10 4.5-10 10v36.6c0 5.5 4.5 10 10 10h30.1c5.5 0 10-4.5 10-10s-4.5-10-10-10zm50.7-54.5c0-5.5-4.5-10-10-10H10c-5.5 0-10 4.5-10 10s4.5 10 10 10h121.3c5.5 0 10-4.4 10-10zm-111-36.1l121.3.7c5.5 0 10-4.4 10.1-9.9.1-5.6-4.4-10.1-9.9-10.1l-121.3-.7h-.1c-5.5 0-10 4.4-10 9.9-.1 5.6 4.4 10.1 9.9 10.1zm20.4-45.4H172c5.5 0 10-4.5 10-10s-4.5-10-10-10H50.7c-5.5 0-10 4.5-10 10s4.5 10 10 10zm436.7-13.5l-71.6-59.3c-1.8-1.5-4-2.3-6.4-2.3h-84.2v-36c0-5.5-4.5-10-10-10H60.5c-5.5 0-10 4.5-10 10v73.2c0 5.5 4.5 10 10 10s10-4.5 10-10v-63.2h234.8v237.1h-82c-5.5 0-10 4.5-10 10s4.5 10 10 10h122.1c5.5 0 10-4.5 10-10s-4.5-10-10-10h-20.1v-191.1h80.6l65.2 54-.7 136.9H460c-5.5 0-10 4.5-10 10s4.5 10 10 10h20.3c5.5 0 10-4.4 10-9.9l.8-151.6c-.1-3-1.4-5.9-3.7-7.8z"/></symbol><symbol id="map" viewBox="0 0 511.998 511.998"><path d="M167.974 350.473c21.086 29.73 42.138 56.32 56.09 73.446 2.031 2.492 3.934 4.804 5.777 7.031h-42.103c-4.713 0-8.533 3.82-8.533 8.533s3.82 8.533 8.533 8.533H324.27c4.713 0 8.533-3.82 8.533-8.533s-3.82-8.533-8.533-8.533h-42.103c1.843-2.227 3.746-4.54 5.786-7.031 13.943-17.067 34.987-43.716 56.081-73.446a749.756 749.756 0 0 0 56.371-90.854c17.425-34.219 26.266-62.626 26.266-84.437a170.55 170.55 0 0 0-49.98-120.841 8.532 8.532 0 1 0-12.075 12.057 153.55 153.55 0 0 1 44.988 108.783c0 19.098-8.209 44.902-24.405 76.689a732.814 732.814 0 0 1-55.091 88.747c-20.804 29.346-41.6 55.637-55.381 72.533a1511.437 1511.437 0 0 1-12.22 14.78 8.642 8.642 0 0 1-13.004 0 1513.93 1513.93 0 0 1-12.22-14.78c-13.781-16.887-34.577-43.179-55.381-72.533a732.814 732.814 0 0 1-55.091-88.747c-16.213-31.787-24.405-57.591-24.405-76.689-.005-61.809 36.959-117.627 93.867-141.747a154.58 154.58 0 0 1 119.552 0 8.535 8.535 0 1 0 6.664-15.718c-86.898-36.652-187.056 4.062-223.735 90.948a170.04 170.04 0 0 0-13.414 66.517c0 21.811 8.841 50.219 26.266 84.48a749.234 749.234 0 0 0 56.368 90.812z"/><path d="M256.003 98.151c4.713 0 8.533-3.82 8.533-8.533s-3.82-8.533-8.533-8.533c-40.71-.001-75.752 28.757-83.695 68.685-7.943 39.928 13.426 79.906 51.037 95.486 37.611 15.58 80.99 2.421 103.608-31.428 22.618-33.849 18.175-78.962-10.611-107.749a8.534 8.534 0 1 0-12.066 12.066c23.03 23.029 26.585 59.118 8.492 86.198-18.093 27.08-52.796 37.608-82.885 25.146-30.089-12.462-47.185-44.444-40.833-76.387s34.385-54.95 66.953-54.951zM508.786 469.957l-52.48-93.867a26.522 26.522 0 0 0-23.219-13.406H372.27c-4.713 0-8.533 3.82-8.533 8.533s3.82 8.533 8.533 8.533h60.817a9.464 9.464 0 0 1 8.337 4.659l52.463 93.867a7.68 7.68 0 0 1-.077 7.885 9.387 9.387 0 0 1-8.26 4.523H26.457a9.387 9.387 0 0 1-8.252-4.523 7.681 7.681 0 0 1-.077-7.885l52.463-93.867a9.454 9.454 0 0 1 8.328-4.659h60.817c4.713 0 8.533-3.82 8.533-8.533s-3.82-8.533-8.533-8.533H78.92a26.537 26.537 0 0 0-23.236 13.406L3.212 469.957a24.748 24.748 0 0 0 .265 24.841 26.284 26.284 0 0 0 22.98 12.954H485.55a26.282 26.282 0 0 0 22.972-12.954 24.746 24.746 0 0 0 .264-24.841z"/><path d="M418.137 405.351h-34.133a8.583 8.583 0 0 0-4.736 1.434l-25.6 17.067a8.535 8.535 0 0 0 9.472 14.2l23.424-15.633h31.573a8.533 8.533 0 0 0 8.533-8.533 8.533 8.533 0 0 0-8.533-8.535zM366.937 465.084a8.533 8.533 0 0 0 8.533 8.533h68.267c4.713 0 8.533-3.82 8.533-8.533s-3.82-8.533-8.533-8.533H375.47a8.533 8.533 0 0 0-8.533 8.533zM153.603 439.484a8.533 8.533 0 0 0 4.745-15.633l-25.6-17.067a8.586 8.586 0 0 0-4.745-1.434H93.87a8.533 8.533 0 0 0 0 17.066h31.573l23.45 15.633a8.516 8.516 0 0 0 4.71 1.435zM68.27 456.551c-4.713 0-8.533 3.82-8.533 8.533s3.82 8.533 8.533 8.533h68.267c4.713 0 8.533-3.82 8.533-8.533s-3.82-8.533-8.533-8.533H68.27z"/></symbol><symbol id="pay" viewBox="0 0 512.001 512.001"><path d="M489.502 218.492h-7.496V115.988c0-26.192-21.309-47.501-47.5-47.501H228.527L89.564 28.783c-.04-.011-.081-.017-.121-.028-.041-.011-.08-.027-.121-.037-.084-.021-.167-.031-.25-.049-.129-.027-.258-.055-.387-.076-.117-.019-.232-.031-.349-.045a7.042 7.042 0 0 0-.406-.038c-.11-.006-.219-.007-.329-.009a7.276 7.276 0 0 0-.418.003c-.103.004-.206.014-.308.022a6.712 6.712 0 0 0-.427.046c-.096.014-.191.032-.286.049-.146.026-.29.054-.433.089-.089.022-.176.047-.264.072-.146.042-.29.085-.434.135-.081.029-.161.06-.242.092a7.358 7.358 0 0 0-.43.18c-.075.035-.148.073-.222.11a6.66 6.66 0 0 0-.416.224c-.071.041-.139.085-.209.129-.134.084-.266.17-.394.263-.067.048-.132.1-.198.151a7.277 7.277 0 0 0-.362.295c-.066.058-.129.119-.193.179-.11.104-.219.208-.323.318-.065.069-.126.141-.189.213a7.45 7.45 0 0 0-.278.334c-.064.083-.124.168-.185.253a6.913 6.913 0 0 0-.229.338c-.062.098-.119.2-.176.301a6.86 6.86 0 0 0-.183.338c-.056.112-.106.227-.157.342-.05.113-.099.226-.143.342-.046.122-.086.247-.127.373-.026.081-.058.157-.082.239-.012.041-.017.081-.028.121-.011.041-.027.08-.037.121l-8.576 34.312H47.505C21.366 68.485.094 89.708.008 115.828c-.001.054-.008.105-.008.158v260c0 4.14 3.37 7.5 7.5 7.5 4.14 0 7.5-3.36 7.5-7.5V150.579c8.504 7.996 19.938 12.91 32.505 12.91h387.001l.026-.001c17.908.014 32.474 14.588 32.474 32.501v52.504h-82.512l-.014.001a7.468 7.468 0 0 0-1.355.13c-.035.006-.069.009-.104.016a7.536 7.536 0 0 0-.579.145c-.042.012-.085.02-.126.033-.17.052-.335.114-.5.177-.063.024-.127.044-.19.07-.138.057-.271.124-.404.189-.088.042-.177.081-.263.126-.104.055-.202.118-.302.178-.111.066-.224.13-.332.202-.073.048-.14.103-.21.154-.128.092-.257.183-.379.284-.053.044-.102.093-.153.138-.131.114-.262.227-.386.351-.073.073-.139.153-.208.229-.097.105-.197.208-.289.32a7.573 7.573 0 0 0-.444.599l-39.998 60.001a7.383 7.383 0 0 0-.702 1.322c-.071.172-.128.347-.185.521-.017.053-.039.104-.055.157a7.46 7.46 0 0 0-.14.558c-.011.049-.025.097-.035.146a7.265 7.265 0 0 0-.076.506c-.009.072-.023.144-.03.217-.014.139-.017.277-.022.416-.005.106-.014.212-.014.319 0 .103.009.206.013.309.005.142.009.285.023.427.007.069.02.138.029.207.022.172.044.344.078.515.009.047.023.093.034.14.041.188.085.376.141.563.016.053.038.104.055.158.057.174.114.349.185.521.188.46.424.904.704 1.323l39.997 59.992.006.008c.161.239.337.467.523.686.061.072.126.139.189.207a7.508 7.508 0 0 0 1.091.979c.07.051.137.107.208.155.225.153.458.294.699.422.061.032.124.059.185.089a7.239 7.239 0 0 0 1.407.532c.081.021.161.043.243.063.203.047.409.083.618.113.076.011.151.026.227.035.258.029.52.045.786.047.021 0 .042.004.064.004l.014-.001h82.491V436c0 17.922-14.58 32.502-32.5 32.502h-387c-17.92 0-32.5-14.58-32.5-32.502 0-.039-.005-.077-.006-.116V405.99c0-4.13-3.36-7.5-7.5-7.5-4.13 0-7.5 3.37-7.5 7.5V436c0 .078.009.154.012.231.125 26.086 21.38 47.271 47.494 47.271h387c26.189 0 47.496-21.305 47.5-47.494v-52.516h7.496c12.404 0 22.496-10.092 22.496-22.496V240.988c-.003-12.404-10.095-22.496-22.499-22.496zM92.9 45.336l132.339 37.813.019.005 88.696 25.342H77.114L92.9 45.336zm374.105 116.058c-8.503-7.994-19.935-12.907-32.499-12.907l-.039.002H47.505c-17.921 0-32.501-14.58-32.501-32.501s14.58-32.501 32.501-32.501h20.398l-6.25 25.009H47.507a7.5 7.5 0 0 0 0 15h19.976l.032.002.023-.002h299.941l.028.002.024-.002h56.966a7.5 7.5 0 0 0 0-15h-55.943l-87.529-25.009h153.48c17.92 0 32.5 14.58 32.5 32.501v45.406zm29.993 199.598c0 4.133-3.363 7.496-7.496 7.496H388.508l-34.999-52.494 34.999-52.502h100.994c.105 0 .207-.012.311-.016a22.414 22.414 0 0 0 7.185-1.281v98.797zm-7.496-112.508c-.052 0-.103.007-.155.008h-7.341v-15h7.496c4.133 0 7.496 3.363 7.496 7.496s-3.363 7.496-7.496 7.496z"/><path d="M414.499 288.493c-15.164 0-27.5 12.337-27.5 27.501s12.336 27.5 27.5 27.5 27.5-12.336 27.5-27.5-12.336-27.501-27.5-27.501zm0 40.001c-6.893 0-12.5-5.607-12.5-12.5s5.607-12.501 12.5-12.501 12.5 5.608 12.5 12.501-5.607 12.5-12.5 12.5z"/></symbol><symbol id="quality" viewBox="0 0 470 470"><path d="M429.591 418.378L367.368 268.16a7.5 7.5 0 1 0-13.858 5.74l56.251 135.801-51.309-14.867a7.497 7.497 0 0 0-8.656 3.586l-25.769 46.793-60.357-145.716c69.663-13.434 122.447-74.853 122.447-148.378C386.118 67.792 318.327 0 235 0S83.881 67.792 83.881 151.119c0 33.751 11.124 64.951 29.896 90.133L40.409 418.378a7.5 7.5 0 0 0 9.017 10.074l60.533-17.541 30.4 55.207a7.502 7.502 0 0 0 13.499-.748l58.136-140.353a7.5 7.5 0 1 0-13.858-5.74l-52.165 125.936-25.767-46.793a7.5 7.5 0 0 0-8.657-3.586l-51.308 14.867 64.397-155.469c27.598 29.52 66.86 48.005 110.364 48.005 4.491 0 8.933-.209 13.325-.594l67.818 163.727a7.498 7.498 0 0 0 13.498.748l30.401-55.207 60.533 17.541a7.499 7.499 0 0 0 9.016-10.074zM98.881 151.119C98.881 76.063 159.944 15 235 15s136.118 61.063 136.118 136.119S310.056 287.237 235 287.237 98.881 226.175 98.881 151.119z"/><path d="M321.659 122.961a7.5 7.5 0 0 0-5.892-5.079l-50.467-8.469-23.649-45.379a7.5 7.5 0 0 0-13.302 0l-23.65 45.379-50.466 8.469a7.499 7.499 0 0 0-4.111 12.651l35.85 36.515-7.54 50.614a7.5 7.5 0 0 0 10.761 7.819L235 202.669l45.806 22.812a7.496 7.496 0 0 0 7.752-.645 7.5 7.5 0 0 0 3.01-7.173l-7.539-50.614 35.85-36.516a7.5 7.5 0 0 0 1.78-7.572zm-50.951 36.244a7.498 7.498 0 0 0-2.066 6.359l5.97 40.074-36.268-18.061a7.506 7.506 0 0 0-6.687 0l-36.268 18.061 5.97-40.074a7.497 7.497 0 0 0-2.066-6.359l-28.385-28.912 39.957-6.706a7.499 7.499 0 0 0 5.41-3.93L235 83.728l18.725 35.93a7.5 7.5 0 0 0 5.41 3.93l39.958 6.706-28.385 28.911z"/><path d="M348.612 158.684c-4.107-.549-7.877 2.343-8.42 6.45-6.957 52.507-52.18 92.104-105.192 92.104-58.514 0-106.119-47.604-106.119-106.119S176.486 45 235 45c53.013 0 98.235 39.596 105.192 92.104.543 4.107 4.32 7.001 8.42 6.45a7.5 7.5 0 0 0 6.449-8.42C347.121 75.198 295.506 30 235 30c-66.785 0-121.119 54.333-121.119 121.119S168.215 272.237 235 272.237c60.506 0 112.121-45.198 120.062-105.134a7.5 7.5 0 0 0-6.45-8.419z"/></symbol><symbol id="recommended" viewBox="0 0 512 512"><path d="M392.327 226.071c0-16.209-13.186-29.394-29.395-29.394H308.91c13.125-14.753 21.703-31.552 23.36-46.623 1.012-9.205-1.832-18.342-7.805-25.069-5.459-6.149-12.924-9.576-21.02-9.651l-.281-.001c-7.831 0-15.181 3.016-20.728 8.512-5.548 5.497-8.618 12.82-8.654 20.635-.285 1.711-3.295 7.61-10.66 14.614-6.03 5.736-16.446 13.621-31.825 18.614-6.03 1.958-11.541 5.563-16.379 10.715a105.986 105.986 0 0 1-11.048 10.18 16.454 16.454 0 0 0-7.728-1.924h-51.307c-9.136 0-16.568 7.432-16.568 16.568v136.818c0 9.136 7.432 16.568 16.568 16.568h51.307c6.228 0 11.659-3.458 14.489-8.551h130.923c13.851 0 25.119-11.268 25.119-25.119 0-4.657-1.273-9.021-3.491-12.765 7.217-4.418 12.042-12.376 12.042-21.44 0-4.657-1.273-9.021-3.491-12.765 7.217-4.418 12.042-12.376 12.042-21.44a24.982 24.982 0 0 0-4.371-14.146c7.793-5.293 12.923-14.227 12.923-24.336zm-29.395 13.361h-4.276a8.017 8.017 0 0 0 0 16.034c5.01 0 9.086 4.076 9.086 9.086s-4.076 9.086-9.086 9.086h-8.551a8.017 8.017 0 0 0 0 16.034c5.01 0 9.086 4.076 9.086 9.086 0 5.01-4.076 9.086-9.086 9.086h-8.551a8.017 8.017 0 0 0 0 16.034c5.01 0 9.086 4.076 9.086 9.086 0 5.01-4.076 9.086-9.086 9.086H212.71v-77.495a8.017 8.017 0 0 0-16.034 0v85.511a.534.534 0 0 1-.534.534h-51.307a.534.534 0 0 1-.534-.534V213.244c0-.295.239-.534.534-.534h51.307c.295 0 .534.239.534.534v17.103a8.017 8.017 0 0 0 16.034 0v-17.103c0-.389-.032-.77-.059-1.152a121.724 121.724 0 0 0 13.954-12.695c2.967-3.161 6.211-5.327 9.642-6.44 18.87-6.126 31.569-15.99 38.898-23.186 9.186-9.019 14.669-18.421 14.669-25.152 0-3.556 1.387-6.889 3.906-9.385 2.55-2.527 5.927-3.862 9.576-3.867 4.494.042 7.47 2.341 9.177 4.263 2.926 3.295 4.366 8.033 3.857 12.672-1.751 15.929-14.49 35.619-32.454 50.161a8.018 8.018 0 0 0 5.044 14.247h74.01c7.368 0 13.361 5.993 13.361 13.361s-5.992 13.361-13.359 13.361z"/><path d="M170.489 316.306c-4.427 0-8.059 3.632-8.059 8.059s3.632 8.059 8.059 8.059 8.059-3.632 8.059-8.059c.001-4.426-3.631-8.059-8.059-8.059z"/><path d="M497.71 256l13.772-36.443a8.014 8.014 0 0 0-1.243-7.847l-24.359-30.404 1.836-38.915a8.017 8.017 0 0 0-3.606-7.078l-32.562-21.389-10.278-37.578a8.016 8.016 0 0 0-5.617-5.617l-37.578-10.278-21.389-32.561a8.027 8.027 0 0 0-7.078-3.606l-38.915 1.836-30.404-24.359a8.018 8.018 0 0 0-7.847-1.243L255.999 14.29 219.558.519a8.012 8.012 0 0 0-7.847 1.243l-30.404 24.359-38.915-1.836a8.001 8.001 0 0 0-7.078 3.606l-21.388 32.562-37.578 10.278a8.016 8.016 0 0 0-5.617 5.617l-10.278 37.578-32.562 21.388a8.016 8.016 0 0 0-3.606 7.078l1.836 38.915-24.359 30.404a8.018 8.018 0 0 0-1.243 7.847L14.29 256 .518 292.442a8.014 8.014 0 0 0 1.243 7.847l24.359 30.404-1.836 38.915a8.017 8.017 0 0 0 3.606 7.078l32.562 21.389 10.278 37.578a8.016 8.016 0 0 0 5.617 5.617l37.578 10.278 21.388 32.562a8.041 8.041 0 0 0 7.078 3.606l38.915-1.836 30.404 24.359a8.013 8.013 0 0 0 7.847 1.243L256 497.71l36.443 13.772a8.02 8.02 0 0 0 7.846-1.243l30.404-24.359 38.915 1.836a8.025 8.025 0 0 0 7.078-3.606l21.389-32.562 37.578-10.278a8.016 8.016 0 0 0 5.617-5.617l10.278-37.578 32.562-21.389a8.016 8.016 0 0 0 3.606-7.078l-1.836-38.915 24.359-30.404a8.018 8.018 0 0 0 1.243-7.847L497.71 256zm-16.069 2.834l13.226 34.999-23.394 29.199a8.014 8.014 0 0 0-1.752 5.39l1.764 37.373-31.271 20.541a8.017 8.017 0 0 0-3.332 4.586l-9.871 36.089-36.089 9.871a8.022 8.022 0 0 0-4.586 3.332l-20.541 31.271-37.373-1.764a8.023 8.023 0 0 0-5.39 1.752l-29.199 23.394-34.999-13.226a8.018 8.018 0 0 0-5.668 0l-34.999 13.226-29.199-23.394a8.03 8.03 0 0 0-5.39-1.752l-37.373 1.764-20.541-31.271a8.017 8.017 0 0 0-4.586-3.332l-36.089-9.871-9.871-36.089a8.022 8.022 0 0 0-3.332-4.586l-31.271-20.541 1.764-37.373a8.012 8.012 0 0 0-1.752-5.39l-23.394-29.199 13.227-34.999a8.019 8.019 0 0 0 0-5.668l-13.227-34.999 23.394-29.199a8.014 8.014 0 0 0 1.752-5.39l-1.764-37.373 31.271-20.541a8.017 8.017 0 0 0 3.332-4.586l9.871-36.089 36.089-9.871a8.022 8.022 0 0 0 4.586-3.332l20.541-31.271 37.373 1.764a8.022 8.022 0 0 0 5.39-1.752l29.199-23.394 34.999 13.227c1.827.69 3.842.69 5.668 0l34.999-13.227 29.199 23.394a8.01 8.01 0 0 0 5.39 1.752l37.373-1.764 20.541 31.271a8.017 8.017 0 0 0 4.586 3.332l36.089 9.871 9.871 36.089a8.022 8.022 0 0 0 3.332 4.586l31.271 20.541-1.764 37.373a8.012 8.012 0 0 0 1.752 5.39l23.394 29.199-13.227 34.999a8.024 8.024 0 0 0 .001 5.668z"/><path d="M406.634 117.574a209.24 209.24 0 0 0-12.573-12.573 8.017 8.017 0 0 0-11.327.484 8.016 8.016 0 0 0 .484 11.327c2.003 1.84 3.997 3.75 5.925 5.678a194.67 194.67 0 0 1 5.679 5.926 7.996 7.996 0 0 0 5.908 2.595c1.937 0 3.88-.698 5.419-2.111a8.015 8.015 0 0 0 .485-11.326zM365.592 83.125c-38.66-24.63-85.206-35.576-131.059-30.829-46.525 4.82-90.395 25.722-123.531 58.857-36.467 36.467-57.699 84.911-59.785 136.408-2.073 51.194 14.883 100.898 47.746 139.954a7.998 7.998 0 0 0 6.139 2.855 8.017 8.017 0 0 0 6.13-13.177c-30.281-35.989-45.905-81.795-43.995-128.982 1.922-47.462 21.49-92.11 55.101-125.72 30.54-30.541 70.972-49.806 113.846-54.247 42.275-4.38 85.171 5.709 120.792 28.403a8.016 8.016 0 0 0 11.068-2.453 8.017 8.017 0 0 0-2.452-11.069zM428.511 146.043a8.017 8.017 0 1 0-13.522 8.614c22.694 35.622 32.781 78.52 28.403 120.792-4.441 42.874-23.706 83.305-54.246 113.847-33.611 33.61-78.259 53.179-125.72 55.101-47.179 1.918-92.994-13.713-128.982-43.993a8.016 8.016 0 0 0-11.295.973 8.016 8.016 0 0 0 .973 11.295c36.921 31.065 83.351 47.917 131.566 47.916 2.789 0 5.589-.057 8.389-.17 51.497-2.085 99.94-23.317 136.408-59.784 33.136-33.136 54.039-77.007 58.857-123.532 4.748-45.856-6.201-92.4-30.831-131.059z"/></symbol><symbol id="search" viewBox="0 0 512 512"><path d="M225.474 0C101.151 0 0 101.151 0 225.474c0 124.33 101.151 225.474 225.474 225.474 124.33 0 225.474-101.144 225.474-225.474C450.948 101.151 349.804 0 225.474 0zm0 409.323c-101.373 0-183.848-82.475-183.848-183.848S124.101 41.626 225.474 41.626s183.848 82.475 183.848 183.848-82.475 183.849-183.848 183.849z"/><path d="M505.902 476.472L386.574 357.144c-8.131-8.131-21.299-8.131-29.43 0-8.131 8.124-8.131 21.306 0 29.43l119.328 119.328A20.74 20.74 0 0 0 491.187 512a20.754 20.754 0 0 0 14.715-6.098c8.131-8.124 8.131-21.306 0-29.43z"/></symbol><symbol id="star" viewBox="0 0 19.481 19.481"><path d="M10.201.758l2.478 5.865 6.344.545a.5.5 0 0 1 .285.876l-4.812 4.169 1.442 6.202a.5.5 0 0 1-.745.541l-5.452-3.288-5.452 3.288a.5.5 0 0 1-.745-.541l1.442-6.202-4.813-4.17a.5.5 0 0 1 .285-.876l6.344-.545L9.28.758a.5.5 0 0 1 .921 0z"/></symbol><symbol id="tag" viewBox="0 0 512 512"><path d="M512 34.88c.039-9.349-3.569-18.126-10.159-24.716S486.457-.028 477.126.006c-9.322.039-18.098 3.702-24.711 10.314-2.8 2.8-7.893 8.848-10.679 12.205a8.294 8.294 0 0 0 1.083 11.68 8.294 8.294 0 0 0 11.68-1.083c4.364-5.256 7.971-9.395 9.646-11.071 3.498-3.497 8.132-5.435 13.05-5.456h.079c4.862 0 9.419 1.88 12.837 5.299 3.437 3.437 5.32 8.024 5.299 12.916-.021 4.917-1.959 9.551-5.456 13.05-3.131 3.131-13.893 11.668-29.312 22.439-9.121-15.594-26.037-26.099-45.37-26.099H293.808c-16.396 0-31.81 6.385-43.405 17.978L7.613 304.971C2.704 309.88 0 316.407 0 323.349s2.704 13.47 7.613 18.378L170.28 504.394c5.068 5.067 11.722 7.6 18.378 7.6 6.656 0 13.312-2.534 18.378-7.6l242.792-242.791c11.593-11.594 17.978-27.008 17.978-43.405V96.735c0-3.585-.363-7.085-1.051-10.47 17.551-12.077 30.435-22.18 34.929-26.674 6.614-6.612 10.277-15.388 10.316-24.711zm-60.783 183.318c0 11.965-4.66 23.214-13.119 31.673L195.306 492.664c-3.664 3.665-9.63 3.665-13.295 0L19.344 329.997c-1.775-1.775-2.754-4.136-2.754-6.648s.978-4.872 2.754-6.647L262.135 73.911c8.461-8.46 19.709-13.119 31.673-13.119h121.463c13.64 0 25.53 7.637 31.618 18.859a672.558 672.558 0 0 1-32.408 20.171 35.31 35.31 0 0 0-1.119-1.177c-13.584-13.584-35.686-13.584-49.27 0-13.584 13.584-13.584 35.686 0 49.27 6.792 6.792 15.714 10.187 24.635 10.187 8.921 0 17.843-3.395 24.635-10.187 9.067-9.067 12.072-21.926 9.036-33.517a696.517 696.517 0 0 0 28.815-17.743l.003.081v121.462zm-69.898-91.191a8.294 8.294 0 0 0 11.139 3.682 519.856 519.856 0 0 0 14.504-7.596c.048 4.735-1.722 9.485-5.328 13.091-7.116 7.115-18.692 7.115-25.808 0-7.115-7.116-7.115-18.692 0-25.808a18.191 18.191 0 0 1 12.904-5.336c3.7 0 7.389 1.134 10.536 3.363a509.19 509.19 0 0 1-14.263 7.468 8.29 8.29 0 0 0-3.684 11.136z"/><path d="M247.162 168.962a8.295 8.295 0 0 0-8.295 8.295v175.179a8.295 8.295 0 0 0 16.59 0V177.257a8.295 8.295 0 0 0-8.295-8.295zM209.231 240.213c-13.583-13.586-35.686-13.585-49.268-.001-13.584 13.584-13.584 35.686 0 49.27 6.793 6.793 15.713 10.188 24.635 10.187 8.92 0 17.843-3.397 24.634-10.187 6.581-6.581 10.205-15.329 10.205-24.635s-3.625-18.055-10.206-24.634zm-11.73 37.537c-7.116 7.116-18.692 7.115-25.807 0-7.115-7.116-7.115-18.692 0-25.808 3.558-3.558 8.231-5.336 12.904-5.336s9.346 1.778 12.904 5.336a18.128 18.128 0 0 1 5.345 12.904 18.133 18.133 0 0 1-5.346 12.904zM334.36 240.212c-13.584-13.585-35.687-13.584-49.268 0-13.584 13.584-13.584 35.686 0 49.27 6.792 6.792 15.713 10.187 24.635 10.187 8.921 0 17.843-3.395 24.634-10.187 13.583-13.584 13.583-35.686-.001-49.27zm-11.731 37.538c-7.116 7.116-18.692 7.115-25.807 0-7.115-7.116-7.115-18.692 0-25.808 3.558-3.558 8.231-5.336 12.904-5.336s9.346 1.778 12.904 5.336c7.115 7.116 7.115 18.692-.001 25.808z"/></symbol><symbol id="user" viewBox="0 0 563.43 563.43"><path d="M280.79 314.559c83.266 0 150.803-67.538 150.803-150.803S364.055 13.415 280.79 13.415 129.987 80.953 129.987 163.756s67.537 150.803 150.803 150.803zm0-261.824c61.061 0 111.021 49.959 111.021 111.021s-49.96 111.02-111.021 111.02-111.021-49.959-111.021-111.021 49.959-111.02 111.021-111.02zM19.891 550.015h523.648c11.102 0 19.891-8.789 19.891-19.891 0-104.082-84.653-189.198-189.198-189.198H189.198C85.116 340.926 0 425.579 0 530.124c0 11.102 8.789 19.891 19.891 19.891zm169.307-169.307h185.034c75.864 0 138.313 56.436 148.028 129.524H41.17c9.714-72.625 72.164-129.524 148.028-129.524z"/></symbol><symbol id="wallet" viewBox="0 0 512 512"><path d="M437.895 350.877v98.246H57.263c-13.221 0-23.579-10.358-23.579-23.579V100.491H0v325.053c0 31.573 25.69 57.263 57.263 57.263h397.474c9.302 0 16.842-7.54 16.842-16.842V350.877h-33.684z"/><path d="M495.158 241.965H367.719c-9.302 0-16.842 7.54-16.842 16.842v92.07c0 9.302 7.54 16.842 16.842 16.842h127.439c9.302 0 16.842-7.54 16.842-16.842v-92.07c0-9.302-7.54-16.842-16.842-16.842zm-16.842 92.07h-93.754v-58.386h93.754v58.386z"/><path d="M454.175 130.246h-40.421V46.035c0-9.302-7.54-16.842-16.842-16.842H67.368C30.22 29.193 0 59.413 0 96.561s30.22 67.368 67.368 67.368h369.965v95.439h33.684v-112.28c.001-9.303-7.539-16.842-16.842-16.842zm-74.105 0H67.368c-18.886 0-33.684-14.799-33.684-33.684s14.799-33.684 33.684-33.684H380.07v67.368z"/><path d="M396.912 80.281H67.93c-9.302 0-16.842 7.54-16.842 16.842s7.54 16.842 16.842 16.842h328.982c9.302 0 16.842-7.54 16.842-16.842s-7.539-16.842-16.842-16.842z"/></symbol><symbol id="warranty" viewBox="0 0 512 512"><path d="M497.36 69.995c-7.532-7.545-19.753-7.558-27.285-.032L238.582 300.845l-83.522-90.713c-7.217-7.834-19.419-8.342-27.266-1.126-7.841 7.217-8.343 19.425-1.126 27.266l97.126 105.481a19.273 19.273 0 0 0 13.784 6.22c.141.006.277.006.412.006a19.317 19.317 0 0 0 13.623-5.628L497.322 97.286c7.551-7.525 7.564-19.746.038-27.291z"/><path d="M492.703 236.703c-10.658 0-19.296 8.638-19.296 19.297 0 119.883-97.524 217.407-217.407 217.407-119.876 0-217.407-97.524-217.407-217.407 0-119.876 97.531-217.407 217.407-217.407 10.658 0 19.297-8.638 19.297-19.296C275.297 8.638 266.658 0 256 0 114.84 0 0 114.84 0 256c0 141.154 114.84 256 256 256 141.154 0 256-114.846 256-256 0-10.658-8.638-19.297-19.297-19.297z"/></symbol></svg>